<?xml version="1.0" encoding="UTF-8"?>
<svg id="Layer_1" xmlns="http://www.w3.org/2000/svg" version="1.1" viewBox="0 0 549.64 549.64">
  <!-- Generator: Adobe Illustrator 29.8.4, SVG Export Plug-In . SVG Version: 2.1.1 Build 6)  -->
  <defs>
    <style>
      .st0 {
        fill: #5ed2f0;
      }
    </style>
  </defs>
  <rect class="st0" x="34.09" y="154.89" width="33.94" height="33.94"/>
  <rect y="120.94" width="33.94" height="33.94"/>
  <rect y="87" width="33.94" height="33.94"/>
  <rect y="53.06" width="33.94" height="33.94"/>
  <rect x="34.09" y="19.11" width="33.94" height="33.94"/>
  <rect x="68.04" y="19.11" width="33.94" height="33.94"/>
  <rect x="101.98" y="53.06" width="33.94" height="33.94"/>
  <rect x="135.92" y="87" width="33.94" height="33.94"/>
  <rect x="169.86" y="87" width="33.94" height="33.94"/>
  <rect x="203.81" y="53.06" width="33.94" height="33.94"/>
  <rect x="237.75" y="53.06" width="33.94" height="33.94"/>
  <rect x="271.69" y="87" width="33.94" height="33.94"/>
  <rect x="203.81" y="120.94" width="33.94" height="33.94"/>
  <rect x="274.82" y="205.8" width="33.94" height="33.94"/>
  <rect x="136.22" y="256.71" width="33.94" height="33.94"/>
  <rect x="308.76" y="239.74" width="33.94" height="33.94"/>
  <rect x="344.07" y="171.86" width="33.94" height="33.94"/>
  <rect x="378.02" y="205.8" width="33.94" height="33.94"/>
  <rect x="271.69" y="19.11" width="45.99" height="33.94"/>
  <rect x="68.19" y="188.83" width="33.94" height="33.94"/>
  <rect x="68.19" y="222.77" width="33.94" height="33.94"/>
  <rect x="68.19" y="256.71" width="33.94" height="33.94"/>
  <rect x="68.19" y="290.66" width="33.94" height="33.94"/>
  <rect x="102.05" y="324.52" width="33.94" height="33.94"/>
  <rect x="136" y="358.47" width="33.94" height="33.94"/>
  <rect x="169.94" y="392.41" width="33.94" height="33.94"/>
  <rect x="203.88" y="392.41" width="33.94" height="33.94"/>
  <rect x="237.83" y="392.41" width="33.94" height="33.94"/>
  <rect x="271.77" y="392.41" width="33.94" height="33.94"/>
  <rect x="305.71" y="392.41" width="33.94" height="33.94"/>
  <rect x="274.82" y="426.35" width="33.94" height="33.94"/>
  <rect x="274.82" y="460.3" width="33.94" height="33.94"/>
  <rect x="308.76" y="494.24" width="33.94" height="33.94"/>
  <rect x="342.7" y="494.24" width="33.94" height="33.94"/>
  <rect x="376.65" y="460.3" width="33.94" height="33.94"/>
  <rect x="410.59" y="426.35" width="33.94" height="33.94"/>
  <rect x="444.53" y="392.41" width="33.94" height="33.94"/>
  <rect x="478.47" y="358.47" width="33.94" height="33.94"/>
  <rect x="512.42" y="324.52" width="33.94" height="33.94"/>
  <rect x="512.42" y="290.66" width="33.94" height="33.94"/>
  <rect x="339.65" y="358.47" width="33.94" height="33.94"/>
  <rect x="478.47" y="256.71" width="33.94" height="33.94"/>
  <rect x="444.53" y="256.71" width="33.94" height="33.94"/>
  <rect x="444.53" y="222.77" width="33.94" height="33.94"/>
  <rect x="444.53" y="188.83" width="33.94" height="33.94"/>
  <rect x="444.53" y="154.89" width="33.94" height="33.94"/>
  <rect x="410.59" y="120.94" width="33.94" height="33.94"/>
  <rect x="410.59" y="87" width="33.94" height="33.94"/>
  <rect x="376.65" y="53.06" width="33.94" height="33.94"/>
  <rect x="342.7" y="19.11" width="33.94" height="33.94"/>
  <rect x="308.76" y="19.11" width="33.94" height="33.94"/>
  <rect x="410.59" y="290.66" width="33.94" height="33.94"/>
  <rect x="102.2" y="222.7" width="33.94" height="33.94"/>
</svg>