<?xml version="1.0" encoding="UTF-8"?>
<svg id="Layer_1" xmlns="http://www.w3.org/2000/svg" version="1.1" viewBox="0 0 549.64 549.64">
  <!-- Generator: Adobe Illustrator 29.8.4, SVG Export Plug-In . SVG Version: 2.1.1 Build 6)  -->
  <defs>
    <style>
      .st0 {
        fill: #5ed2f0;
      }
    </style>
  </defs>
  <rect class="st0" x="34.09" y="154.89" width="33.94" height="33.94"/>
  <polygon class="st0" points="0 87 0 120.94 0 154.88 33.94 154.88 33.94 120.94 33.94 87 33.94 53.06 0 53.06 0 87"/>
  <polygon class="st0" points="101.98 53.05 101.98 19.11 77.83 19.11 68.04 19.11 34.09 19.11 34.09 53.05 68.04 53.05 77.83 53.05 101.98 53.05"/>
  <rect class="st0" x="101.98" y="53.06" width="33.94" height="33.94"/>
  <polygon class="st0" points="169.86 120.94 203.8 120.94 203.8 87 169.86 87 135.92 87 135.92 120.94 169.86 120.94"/>
  <polygon class="st0" points="271.69 87 271.69 53.06 237.75 53.06 203.81 53.06 203.81 87 237.75 87 271.69 87"/>
  <rect class="st0" x="271.69" y="87" width="33.94" height="33.94"/>
  <rect class="st0" x="203.81" y="120.94" width="33.94" height="33.94"/>
  <rect class="st0" x="274.82" y="205.8" width="33.94" height="33.94"/>
  <rect class="st0" x="136.22" y="256.71" width="33.94" height="33.94"/>
  <rect class="st0" x="308.76" y="239.74" width="33.94" height="33.94"/>
  <rect class="st0" x="344.07" y="171.86" width="33.94" height="33.94"/>
  <rect class="st0" x="378.02" y="205.8" width="33.94" height="33.94"/>
  <polygon class="st0" points="102.13 290.65 102.13 274.82 102.13 256.71 102.13 256.64 136.14 256.64 136.14 222.7 102.13 222.7 102.13 188.83 68.19 188.83 68.19 222.77 68.19 256.71 68.19 274.82 68.19 290.65 68.19 324.6 102.05 324.6 102.05 358.46 135.99 358.46 135.99 324.52 102.13 324.52 102.13 290.65"/>
  <rect class="st0" x="136" y="358.47" width="33.94" height="33.94"/>
  <polygon class="st0" points="308.76 448.54 308.76 426.35 339.65 426.35 339.65 392.41 305.71 392.41 271.77 392.41 237.82 392.41 220.78 392.41 203.88 392.41 169.94 392.41 169.94 426.35 203.88 426.35 220.78 426.35 237.82 426.35 271.77 426.35 274.82 426.35 274.82 448.54 274.82 460.29 274.82 494.24 308.76 494.24 308.76 460.29 308.76 448.54"/>
  <polygon class="st0" points="308.76 494.24 308.76 528.18 342.7 528.18 376.64 528.18 376.64 494.24 342.7 494.24 308.76 494.24"/>
  <rect class="st0" x="376.65" y="460.3" width="33.94" height="33.94"/>
  <rect class="st0" x="410.59" y="426.35" width="33.94" height="33.94"/>
  <rect class="st0" x="444.53" y="392.41" width="33.94" height="33.94"/>
  <rect class="st0" x="478.47" y="358.47" width="33.94" height="33.94"/>
  <polygon class="st0" points="512.42 290.66 512.42 324.52 512.42 324.6 512.42 358.46 546.36 358.46 546.36 324.6 546.36 324.52 546.36 290.66 512.42 290.66"/>
  <rect class="st0" x="339.65" y="358.47" width="33.94" height="33.94"/>
  <polygon class="st0" points="478.47 222.77 478.47 188.83 478.47 154.89 444.53 154.89 444.53 188.83 444.53 222.77 444.53 256.71 444.53 290.65 478.47 290.65 512.41 290.65 512.41 256.71 478.47 256.71 478.47 222.77"/>
  <polygon class="st0" points="410.59 154.88 444.53 154.88 444.53 120.94 444.53 87 410.59 87 410.59 120.94 410.59 154.88"/>
  <rect class="st0" x="376.65" y="53.06" width="33.94" height="33.94"/>
  <polygon class="st0" points="317.68 53.05 342.7 53.05 376.64 53.05 376.64 19.11 342.7 19.11 317.68 19.11 308.76 19.11 271.69 19.11 271.69 53.05 308.76 53.05 317.68 53.05"/>
  <rect class="st0" x="410.59" y="290.66" width="33.94" height="33.94"/>
</svg>